<svg width="13" height="10" viewBox="0 0 13 10" fill="none" xmlns="http://www.w3.org/2000/svg">
<path d="M12.1271 1.11185C11.6986 1.30188 11.2376 1.4304 10.7542 1.4878C11.2478 1.19207 11.6266 0.724141 11.8054 0.165659C11.3435 0.439642 10.8317 0.6384 10.2875 0.745533C9.8515 0.281171 9.23027 -0.0090332 8.54237 -0.0090332C7.22255 -0.0090332 6.15212 1.06141 6.15212 2.38123C6.15212 2.56858 6.17333 2.75093 6.21433 2.92598C4.22782 2.82634 2.46646 1.8748 1.28746 0.428233C1.08175 0.781184 0.963741 1.19207 0.963741 1.63005C0.963741 2.45913 1.38603 3.19105 2.02705 3.61958C1.63542 3.60728 1.2666 3.49979 0.944489 3.32029C0.944311 3.33045 0.944311 3.34061 0.944311 3.35059C0.944311 4.50873 1.76858 5.47471 2.86183 5.69415C2.66147 5.74905 2.44988 5.77811 2.23222 5.77811C2.07785 5.77811 1.92829 5.76331 1.78248 5.7355C2.08659 6.68491 2.96914 7.37601 4.01534 7.39544C3.19713 8.03664 2.16663 8.41864 1.04645 8.41864C0.853934 8.41864 0.663199 8.40741 0.476562 8.38513C1.53381 9.06358 2.79053 9.45913 4.1403 9.45913C8.53685 9.45913 10.9412 5.81697 10.9412 2.65806C10.9412 2.55449 10.9389 2.45128 10.9342 2.34896C11.4016 2.01205 11.8068 1.59119 12.1271 1.11185Z" fill="#305F64"/>
</svg>
